<?xml version="1.0" encoding="UTF-8" standalone="no"?>
<!DOCTYPE svg PUBLIC "-//W3C//DTD SVG 1.1//EN" "http://www.w3.org/Graphics/SVG/1.1/DTD/svg11.dtd">
<!-- Generated by Microsoft Visio, SVG Export Kubernetes_master_worker_detail.svg Page-1 -->
<svg xmlns="http://www.w3.org/2000/svg" xmlns:xlink="http://www.w3.org/1999/xlink" xmlns:ev="http://www.w3.org/2001/xml-events"
		width="16.5354in" height="11.6929in" viewBox="0 0 1190.55 841.89" xml:space="preserve" color-interpolation-filters="sRGB"
		class="st32">
	<style type="text/css">
	<![CDATA[
		.st1 {fill:#fcebdd;stroke:#000000;stroke-linecap:round;stroke-linejoin:round;stroke-width:0.75}
		.st2 {fill:#000000;font-family:DIN-Regular;font-size:1.00001em;font-stretch:semi-expanded}
		.st3 {fill:#dbeef3;stroke:#000000;stroke-linecap:round;stroke-linejoin:round;stroke-width:0.75}
		.st4 {fill:#ff00ff;fill-opacity:0}
		.st5 {stroke:#000000;stroke-linecap:round;stroke-linejoin:round;stroke-opacity:0;stroke-width:0.72}
		.st6 {fill:url(#grad0-55);stroke:#ffffff;stroke-linecap:round;stroke-linejoin:round;stroke-width:0.72}
		.st7 {fill:url(#grad11-59)}
		.st8 {stroke:#000000;stroke-linecap:round;stroke-linejoin:round;stroke-width:0.72}
		.st9 {stroke:#000000;stroke-linecap:round;stroke-linejoin:round;stroke-width:1.5}
		.st10 {fill:#000000;font-family:DIN-Regular;font-size:0.833336em}
		.st11 {fill:url(#grad12-75);stroke:#ffffff;stroke-linecap:round;stroke-linejoin:round;stroke-width:0.72}
		.st12 {fill:url(#grad11-59);stroke:#000000;stroke-linecap:round;stroke-linejoin:round;stroke-width:0.72}
		.st13 {fill:url(#grad11-59);visibility:hidden}
		.st14 {fill:#f2dcda;stroke:#000000;stroke-linecap:round;stroke-linejoin:round;stroke-width:0.75}
		.st15 {fill:#000000;font-family:DIN-Regular;font-size:1.00001em}
		.st16 {fill:#fff2cc;stroke:#000000;stroke-linecap:round;stroke-linejoin:round;stroke-width:0.75}
		.st17 {fill:#ebf1df;stroke:#000000;stroke-linecap:round;stroke-linejoin:round;stroke-width:0.75}
		.st18 {marker-end:url(#mrkr5-147);marker-start:url(#mrkr5-145);stroke:#0070c0;stroke-linecap:round;stroke-linejoin:round;stroke-width:1.5}
		.st19 {fill:#0070c0;fill-opacity:1;stroke:#0070c0;stroke-opacity:1;stroke-width:0.37313432835821}
		.st20 {fill:#ffffff;stroke:none;stroke-linecap:butt;stroke-width:7.2}
		.st21 {fill:#000000;font-family:DIN-Regular;font-size:0.75em}
		.st22 {fill:#ffffff;stroke:none;stroke-linecap:butt}
		.st23 {fill:#ffffff;stroke:#000000;stroke-linecap:round;stroke-linejoin:round;stroke-width:0.75}
		.st24 {marker-end:url(#mrkr5-253);marker-start:url(#mrkr5-145);stroke:#0070c0;stroke-linecap:round;stroke-linejoin:round;stroke-width:1.5}
		.st25 {marker-end:url(#mrkr13-329);stroke:#000000;stroke-linecap:round;stroke-linejoin:round;stroke-width:0.75}
		.st26 {fill:#000000;fill-opacity:1;stroke:#000000;stroke-opacity:1;stroke-width:0.22935779816514}
		.st27 {font-size:1em}
		.st28 {fill:#ff00ff;fill-opacity:0;stroke:none;stroke-linecap:round;stroke-linejoin:round;stroke-width:0.24}
		.st29 {fill:#ff0000;stroke:#000000;stroke-linecap:round;stroke-linejoin:round;stroke-width:0.75}
		.st30 {stroke:#00b050;stroke-linecap:round;stroke-linejoin:round;stroke-width:1.5}
		.st31 {stroke:#000000;stroke-linecap:round;stroke-linejoin:round;stroke-width:0.75}
		.st32 {fill:none;fill-rule:evenodd;font-size:12px;overflow:visible;stroke-linecap:square;stroke-miterlimit:3}
	]]>
	</style>

	<defs id="Patterns_And_Gradients">
		<linearGradient id="grad0-11" x1="0" y1="0" x2="1" y2="0" gradientTransform="rotate(90 0.5 0.5)">
			<stop offset="0.01" stop-color="#fefaf5" stop-opacity="1"/>
			<stop offset="0.5" stop-color="#fdf0e6" stop-opacity="1"/>
			<stop offset="1" stop-color="#fefaf5" stop-opacity="1"/>
		</linearGradient>
		<linearGradient id="grad0-15" x1="0" y1="0" x2="1" y2="0" gradientTransform="rotate(270 0.5 0.5)">
			<stop offset="0" stop-color="#fdf0e6" stop-opacity="1"/>
			<stop offset="1" stop-color="#fefaf5" stop-opacity="1"/>
		</linearGradient>
		<linearGradient id="grad0-27" x1="0" y1="0" x2="1" y2="0" gradientTransform="rotate(90 0.5 0.5)">
			<stop offset="0.01" stop-color="#f4fafb" stop-opacity="1"/>
			<stop offset="0.5" stop-color="#e4f2f5" stop-opacity="1"/>
			<stop offset="1" stop-color="#f4fafb" stop-opacity="1"/>
		</linearGradient>
		<linearGradient id="grad0-31" x1="0" y1="0" x2="1" y2="0" gradientTransform="rotate(270 0.5 0.5)">
			<stop offset="0" stop-color="#e4f2f5" stop-opacity="1"/>
			<stop offset="1" stop-color="#f4fafb" stop-opacity="1"/>
		</linearGradient>
		<linearGradient id="grad0-55" x1="0" y1="0" x2="1" y2="0" gradientTransform="rotate(270 0.5 0.5)">
			<stop offset="0" stop-color="#ffffff" stop-opacity="1"/>
			<stop offset="1" stop-color="#dfdfdf" stop-opacity="1"/>
		</linearGradient>
		<pattern id="grad11-59" x="0" y="0" width="1" height="1" patternContentUnits="objectBoundingBox">
			<path d="M 0 1 L 0 0 L 1 0 z" style="fill:url(#grad0-60)"/>
			<path d="M 0 1 L 1 1 L 1 0 z" style="fill:url(#grad0-61)"/>
		</pattern>
		<linearGradient id="grad0-60" x1="0" y1="0" x2="1" y2="0" gradientTransform="rotate(180 0.5 0.5)">
			<stop offset="0" stop-color="#ffffff" stop-opacity="1"/>
			<stop offset="1" stop-color="#c0c0c0" stop-opacity="1"/>
		</linearGradient>
		<linearGradient id="grad0-61" x1="0" y1="0" x2="1" y2="0" gradientTransform="rotate(90 0.5 0.5)">
			<stop offset="0" stop-color="#ffffff" stop-opacity="1"/>
			<stop offset="1" stop-color="#c0c0c0" stop-opacity="1"/>
		</linearGradient>
		<pattern id="grad12-75" x="0" y="0" width="1" height="1" patternContentUnits="objectBoundingBox">
			<path d="M 0 0 L 0 1 L 1 1 z" style="fill:url(#grad0-76)"/>
			<path d="M 0 0 L 1 0 L 1 1 z" style="fill:url(#grad0-77)"/>
		</pattern>
		<linearGradient id="grad0-76" x1="0" y1="0" x2="1" y2="0" gradientTransform="rotate(90 0.5 0.5)">
			<stop offset="0" stop-color="#ffffff" stop-opacity="1"/>
			<stop offset="1" stop-color="#a7a7a7" stop-opacity="1"/>
		</linearGradient>
		<linearGradient id="grad0-77" x1="0" y1="0" x2="1" y2="0" gradientTransform="rotate(360 0.5 0.5)">
			<stop offset="0" stop-color="#ffffff" stop-opacity="1"/>
			<stop offset="1" stop-color="#a7a7a7" stop-opacity="1"/>
		</linearGradient>
	</defs>
	<defs id="Markers">
		<g id="lend5">
			<path d="M 2 1 L 0 0 L 1.98117 -0.993387 C 1.67173 -0.364515 1.67301 0.372641 1.98465 1.00043 " style="stroke:none"/>
		</g>
		<marker id="mrkr5-145" class="st19" refX="4.45" orient="auto" markerUnits="strokeWidth" overflow="visible">
			<use xlink:href="#lend5" transform="scale(2.68) "/>
		</marker>
		<marker id="mrkr5-147" class="st19" refX="-4.45" orient="auto" markerUnits="strokeWidth" overflow="visible">
			<use xlink:href="#lend5" transform="scale(-2.68,-2.68) "/>
		</marker>
		<marker id="mrkr5-253" class="st19" refX="-0" orient="auto" markerUnits="strokeWidth" overflow="visible">
			<use xlink:href="#lend5" transform="scale(-2.68,-2.68) "/>
		</marker>
		<g id="lend13">
			<path d="M 3 1 L 0 0 L 3 -1 L 3 1 " style="stroke:none"/>
		</g>
		<marker id="mrkr13-329" class="st26" refX="-13.08" orient="auto" markerUnits="strokeWidth" overflow="visible">
			<use xlink:href="#lend13" transform="scale(-4.36,-4.36) "/>
		</marker>
	</defs>
	<g>
		<title>Page-1</title>
		<g id="group150-1" transform="translate(85.0394,-224.858)">
			<title>Plain.1015</title>
			<g id="group151-2">
				<title>Sheet.151</title>
				<g id="shape152-3" transform="translate(2.83465,2.83465)">
					<title>Sheet.152</title>
				</g>
				<g id="shape151-5">
					<path d="M0 841.89 L201.26 841.89 L402.52 841.89 L402.52 242.86 L201.26 242.86 L0 242.86 L0 841.89 Z"
							class="st1"/>
				</g>
			</g>
			<g id="group153-7" transform="translate(0,-573.52)">
				<title>Sheet.153</title>
				<desc>Master (EC2)</desc>
				<g id="shape154-8">
					<title>Sheet.154</title>
				</g>
				<g id="shape153-12">
					<text x="6" y="832.73" class="st2">Master (EC2)</text>				</g>
			</g>
		</g>
		<g id="group155-17" transform="translate(649.134,-457.804)">
			<title>Plain.1064</title>
			<g id="group156-18">
				<title>Sheet.156</title>
				<g id="shape157-19" transform="translate(2.83465,2.83465)">
					<title>Sheet.157</title>
				</g>
				<g id="shape156-21">
					<path d="M0 841.89 L201.26 841.89 L402.52 841.89 L402.52 475.8 L201.26 475.8 L0 475.8 L0 841.89 Z" class="st3"/>
				</g>
			</g>
			<g id="group158-23" transform="translate(0,-340.574)">
				<title>Sheet.158</title>
				<desc>Worker node 1(EC2)</desc>
				<g id="shape159-24">
					<title>Sheet.159</title>
				</g>
				<g id="shape158-28">
					<text x="6" y="832.73" class="st2">Worker node 1(EC2)</text>				</g>
			</g>
		</g>
		<g id="group160-33" transform="translate(649.134,-72.0753)">
			<title>Plain.1112</title>
			<g id="group161-34">
				<title>Sheet.161</title>
				<g id="shape162-35" transform="translate(2.83465,2.83465)">
					<title>Sheet.162</title>
				</g>
				<g id="shape161-37">
					<path d="M0 841.89 L201.26 841.89 L402.52 841.89 L402.52 475.8 L201.26 475.8 L0 475.8 L0 841.89 Z" class="st3"/>
				</g>
			</g>
			<g id="group163-39" transform="translate(0,-340.574)">
				<title>Sheet.163</title>
				<desc>Worker node 2 (EC2)</desc>
				<g id="shape164-40">
					<title>Sheet.164</title>
				</g>
				<g id="shape163-43">
					<text x="6" y="832.73" class="st2">Worker node 2 (EC2)</text>				</g>
			</g>
		</g>
		<g id="group165-47" transform="translate(128.976,-716.652)">
			<title>Sheet.165</title>
			<g id="group166-48" transform="translate(8.85667,-8.37834)">
				<title>Data.1619</title>
				<desc>etcd</desc>
				<g id="shape167-49" transform="translate(0,0.000575512)">
					<title>Sheet.167</title>
					<path d="M61.9 797.86 A30.9494 17.9828 0.18 0 1 61.15 801.85 A30.9494 17.9828 -179.82 0 0 61.9 797.86 L61.9 797.86
								 ZM61.9 797.86 A30.9494 17.9828 -179.82 0 0 0 797.86 L0 823.91 A30.9496 17.9829 -179.82 0 0 61.9
								 823.91 L62.01 823.91 L62.01 797.86 L61.9 797.86 L61.9 797.86 Z" class="st4"/>
					<path d="M61.9 797.86 A30.9494 17.9828 0.18 0 1 61.15 801.85 A30.9494 17.9828 -179.82 0 0 61.9 797.86M61.9 797.86
								 A30.9494 17.9828 -179.82 0 0 0 797.86 L0 823.91 A30.9496 17.9829 -179.82 0 0 61.9 823.91 L62.01
								 823.91 L62.01 797.86 L61.9 797.86" class="st5"/>
				</g>
				<g id="shape168-52" transform="translate(-3.11751E-13,-26.0435)">
					<title>Sheet.168</title>
					<path d="M0 823.81 A30.9494 17.9828 -179.82 1 1 61.9 824 A30.9494 17.9828 -179.82 1 1 0 823.81 Z" class="st6"/>
				</g>
				<g id="shape169-56">
					<title>Sheet.169</title>
					<path d="M0 797.86 L0 823.81 L0 823.91 A30.9496 17.9829 -179.82 0 0 61.9 823.91 L62.01 823.91 L62.01 797.86 L61.9
								 797.86 A30.9494 17.9828 0.18 0 1 0 797.86 L0 797.86 Z" class="st7"/>
					<path d="M0 797.86 L0 823.81 L0 823.91 A30.9496 17.9829 -179.82 0 0 61.9 823.91 L62.01 823.91 L62.01 797.86 L61.9
								 797.86 A30.9494 17.9828 0.18 0 1 0 797.86" class="st8"/>
				</g>
				<g id="shape170-63" transform="translate(0,0.000503586)">
					<title>Sheet.170</title>
					<path d="M61.9 797.86 A30.9494 17.9828 -179.82 1 0 0 797.86 L0 823.91 A30.9496 17.9829 -179.82 0 0 61.9 823.91
								 L62.01 823.91 L62.01 797.86 L61.9 797.86" class="st9"/>
				</g>
				<g id="shape166-66">
					<text x="21.52" y="854.89" class="st10">etcd</text>				</g>
			</g>
			<g id="group171-68">
				<title>Lock and key.2031</title>
				<g id="shape172-69" transform="translate(-8.50394,0)">
					<title>Sheet.172</title>
					<path d="M2.64 832.4 L2.61 832.37 L2.64 832.4 ZM2.64 832.39 A1.44385 1.47842 -180 0 0 4.21 832.3 A5.03956 5.16022
								 -180 0 0 5.46 831.09 A12.7808 13.0868 -180 0 0 6.19 829.58 L27.31 841.89 L39.72 834.66 L39.72 810.51
								 L34.23 807.3 L34.21 801.88 L34.21 797.64 A13.7727 13.7517 -180 0 0 14.04 785.38 A9.43467 9.42029
								 -180 0 0 9.71 792.29 L9.71 801.13 L4.26 804.31 L4.26 819.48 A2.0366 1.98898 -90 0 0 3.04 819.59
								 A5.78193 5.64673 -90 0 0 1.15 822.15 A14.1425 13.8118 -90 0 0 0 827.45 A7.57547 7.39833 -90 0 0
								 1.18 831.53 L2.64 832.4 L2.64 832.39 ZM2.61 832.37 L2.64 832.39 L2.61 832.37 ZM1.17 828.12 A14.3287
								 13.9936 90 0 1 2.03 823.52 A15.667 16.0421 -180 0 0 1.18 828.12 A7.43663 7.61468 -180 0 0 1.65 830.81
								 A5.94382 5.80484 90 0 1 1.17 828.12 ZM17.84 792.57 A2.38546 2.38183 -180 0 0 17.72 792.6 A6.01578
								 6.00661 -0 0 0 16.71 793.19 A2.38546 2.38183 0 0 1 17.72 792.6 A6.01578 6.00661 180 0 1 17.83 792.55
								 L17.84 792.57 ZM17.83 792.55 A6.01578 6.00661 180 0 1 26.24 798.47 A933.781 932.358 -180 0 0 26.19
								 802.62 L17.81 797.74 L17.84 792.57 L17.83 792.55 Z" class="st4"/>
					<path d="M2.64 832.4 L2.61 832.37M2.64 832.39 A1.44385 1.47842 -180 0 0 4.21 832.3 A5.03956 5.16022 -180 0 0
								 5.46 831.09 A12.7808 13.0868 -180 0 0 6.19 829.58 L27.31 841.89 L39.72 834.66 L39.72 810.51 L34.23
								 807.3 L34.21 801.88 L34.21 797.64 A13.7727 13.7517 -180 0 0 14.04 785.38 A9.43467 9.42029 -180 0
								 0 9.71 792.29 L9.71 801.13 L4.26 804.31 L4.26 819.48 A2.0366 1.98898 -90 0 0 3.04 819.59 A5.78193
								 5.64673 -90 0 0 1.15 822.15 A14.1425 13.8118 -90 0 0 0 827.45 A7.57547 7.39833 -90 0 0 1.18 831.53
								 L2.64 832.4M2.61 832.37 L2.64 832.39M1.17 828.12 A14.3287 13.9936 90 0 1 2.03 823.52 A15.667 16.0421
								 -180 0 0 1.18 828.12 A7.43663 7.61468 -180 0 0 1.65 830.81 A5.94382 5.80484 90 0 1 1.17 828.12M17.84
								 792.57 A2.38546 2.38183 -180 0 0 17.72 792.6 A6.01578 6.00661 -0 0 0 16.71 793.19 A2.38546 2.38183
								 0 0 1 17.72 792.6 A6.01578 6.00661 180 0 1 17.83 792.55M17.83 792.55 A6.01578 6.00661 180 0 1 26.24
								 798.47 A933.781 932.358 -180 0 0 26.19 802.62 L17.81 797.74 L17.84 792.57" class="st5"/>
				</g>
				<g id="shape173-72" transform="translate(23.0536,2.27374E-13)">
					<title>Sheet.173</title>
					<path d="M0 817.74 L0 841.89 L12.41 834.66 L12.41 810.51 L0 817.74 Z" class="st11"/>
				</g>
				<g id="shape174-78" transform="translate(0,-24.1513)">
					<title>Sheet.174</title>
					<path d="M0 828.46 L23.05 841.89 L35.47 834.66 L12.41 821.22 L0 828.46 Z" class="st6"/>
				</g>
				<g id="shape175-81" transform="translate(5.45488,-28.8141)">
					<title>Sheet.175</title>
					<path d="M24.53 840.01 A5.49834 5.48996 0 0 1 16.44 840.22 A933.781 932.358 0 0 1 16.53 827.28 A6.01578 6.00661
								 -180 0 0 7 822.01 A2.38546 2.38183 0 0 1 8.13 821.39 L8.06 832.7 A5.32098 5.31287 0 0 1 0 832.6
								 L0 821.11 A9.43467 9.42029 0 0 1 4.33 814.19 A13.7727 13.7517 0 0 1 24.5 826.45 L24.5 830.69 L24.53
								 840.01 Z" class="st12"/>
				</g>
				<g id="shape176-84">
					<title>Sheet.176</title>
					<path d="M0 828.46 L23.05 841.89 L23.05 817.74 L0 804.31 L0 828.46 Z" class="st12"/>
				</g>
				<g id="shape177-87" transform="translate(-130.432,-4.24119) rotate(-10) scale(-1,1)">
					<title>Sheet.177</title>
					<ellipse cx="3.43927" cy="835.512" rx="3.43927" ry="6.37807" class="st12"/>
				</g>
				<g id="shape178-90" transform="translate(10.3553,-18.9213)">
					<title>Sheet.178</title>
					<path d="M0 841.04 L1.43 841.89 L1.45 835.92 L0 835.09 L0 841.04 Z" class="st12"/>
				</g>
				<g id="shape179-93" transform="translate(13.5484,-39.2486)">
					<title>Sheet.179</title>
					<path d="M0 836.97 L8.41 841.89 L8.44 837.72 A6.03725 6.02805 -180 0 0 0.03 831.82 L0 836.97" class="st9"/>
				</g>
				<g id="shape180-96" transform="translate(-3.08051,-9.30656)">
					<title>Sheet.180</title>
					<path d="M14.8 826.45 L14.8 828.19 L13.84 830.16 L10.15 832.33 L8.93 834.92 L5.66 836.82 A12.7808 13.0868 0 0
								 1 4.29 840.4 A5.03956 5.16022 0 0 1 3.03 841.61 A1.44385 1.47842 0 0 1 0.91 841.1 A7.43663 7.61468
								 0 0 1 0 837.43 A15.667 16.0421 0 0 1 0.9 832.69 A6.63517 6.79403 0 0 1 3.03 829.58 A1.58558 1.62354
								 0 0 1 5.14 830.19 A4.21812 4.31911 0 0 1 5.8 831.78 L14.8 826.45 Z" class="st12"/>
				</g>
				<g id="shape181-99" transform="translate(143.826,-0.591621) rotate(10)">
					<title>Sheet.181</title>
					<ellipse cx="0.891036" cy="840.118" rx="0.891036" ry="1.77152" class="st13"/>
					<ellipse cx="0.891036" cy="840.118" rx="0.891036" ry="1.77152" class="st8"/>
				</g>
				<g id="shape182-103" transform="translate(2.31668,-19.4211)">
					<title>Sheet.182</title>
					<path d="M0 840.79 L0.4 841.89 L9.4 836.57 L8.23 835.88 L0 840.79 Z" class="st12"/>
				</g>
				<g id="shape183-106" transform="translate(-4.25605,-9.49086)">
					<title>Sheet.183</title>
					<path d="M2.64 841.89 A5.80484 5.94382 0 0 1 1.17 837.61 A13.9936 14.3287 0 0 1 2.08 832.87 A7.43618 7.61423
								 0 0 1 4.21 829.77 A1.52978 1.56641 0 0 1 5.6 829.71 L4.98 829.31 A1.98898 2.0366 -180 0 0 3.04 829.08
								 A5.64673 5.78193 -180 0 0 1.15 831.64 A13.8118 14.1425 -180 0 0 0 836.94 A7.39833 7.57547 -180 0
								 0 1.18 841.02 L2.64 841.89 Z" class="st12"/>
				</g>
				<g id="shape184-109" transform="translate(-1.93643,-13.2271)">
					<title>Sheet.184</title>
					<path d="M0.69 839.35 A3.20076 3.2774 0 0 1 0 841.46 a0.569519 0.583155 -180 0 0 0.859812 0.334684 A1.684 1.72432
								 -180 0 0 1.47 840.88 A3.30895 3.38818 -180 0 0 1.63 839.11 a0.806835 0.826153 -180 0 0 -0.584573
								 -0.715477 a0.849772 0.870118 -180 0 0 -0.540848 0.223726 A2.98633 3.05783 0 0 1 0.69 839.35 Z"
							class="st12"/>
				</g>
				<g id="shape185-112" transform="translate(-4.25605,-2.27374E-13)">
					<title>Sheet.185</title>
					<path d="M4.26 804.31 L4.26 819.48 A1.96317 1.98129 -180 0 0 3.04 819.59 A5.72211 5.77493 -180 0 0 1.15 822.15
								 A14.1853 14.3162 -180 0 0 0 827.45 A7.58562 7.65565 -180 0 0 1.18 831.53 L2.64 832.4 A1.46659 1.48013
								 -180 0 0 4.21 832.3 A5.07144 5.11826 -180 0 0 5.46 831.09 A12.2518 12.3649 -180 0 0 6.19 829.58
								 L27.31 841.89 L39.72 834.66 L39.72 810.51 L34.23 807.35 L34.21 797.64 A14.0374 14.0136 -165.69 0
								 0 14.04 785.38 A9.40402 9.38968 -0.21 0 0 9.71 792.29 L9.72 801.16 L4.26 804.31" class="st9"/>
				</g>
			</g>
		</g>
		<g id="shape186-115" transform="translate(93.5433,-653.342)">
			<title>Sheet.186</title>
			<desc>API Server</desc>
			<rect x="0" y="793.701" width="133.228" height="48.189" class="st14"/>
			<text x="38.36" y="821.4" class="st15">API Server</text>		</g>
		<g id="shape187-118" transform="translate(93.5433,-593.344)">
			<title>Sheet.187</title>
			<desc>Controller Manager</desc>
			<rect x="0" y="793.701" width="133.228" height="48.189" class="st14"/>
			<text x="14.23" y="821.4" class="st15">Controller Manager</text>		</g>
		<g id="shape188-121" transform="translate(93.5433,-533.347)">
			<title>Sheet.188</title>
			<desc>Scheduler</desc>
			<rect x="0" y="793.701" width="133.228" height="48.189" class="st14"/>
			<text x="39.46" y="821.4" class="st15">Scheduler</text>		</g>
		<g id="shape189-124" transform="translate(93.5433,-473.35)">
			<title>Sheet.189</title>
			<desc>Cluster Auto Scaler</desc>
			<rect x="0" y="793.701" width="133.228" height="48.189" class="st16"/>
			<text x="14.65" y="821.4" class="st15">Cluster Auto Scaler</text>		</g>
		<g id="shape190-127" transform="translate(93.5433,-413.353)">
			<title>Sheet.190</title>
			<desc>External DNS</desc>
			<rect x="0" y="793.701" width="133.228" height="48.189" class="st16"/>
			<text x="30.69" y="821.4" class="st15">External DNS</text>		</g>
		<g id="shape191-130" transform="translate(93.5433,-353.356)">
			<title>Sheet.191</title>
			<desc>Calico</desc>
			<rect x="0" y="793.701" width="133.228" height="48.189" class="st16"/>
			<text x="50.22" y="821.4" class="st15">Calico</text>		</g>
		<g id="shape192-133" transform="translate(93.5433,-293.359)">
			<title>Sheet.192</title>
			<desc>Kubelet</desc>
			<rect x="0" y="793.701" width="133.228" height="48.189" class="st17"/>
			<text x="45.94" y="821.4" class="st15">Kubelet</text>		</g>
		<g id="shape193-136" transform="translate(93.5433,-233.362)">
			<title>Sheet.193</title>
			<desc>Docker</desc>
			<rect x="0" y="793.701" width="133.228" height="48.189" class="st17"/>
			<text x="47.53" y="821.4" class="st15">Docker</text>		</g>
		<g id="shape194-139" transform="translate(153.071,-640.351)">
			<title>Dynamic connector.1049</title>
			<path d="M0.8 838.47 L0.46 838.35 C-14.64 833.31 -23.97 832.06 0.08 829.57 L0.44 829.54" class="st18"/>
		</g>
		<g id="shape195-148" transform="translate(100.63,-557.442)">
			<title>Dynamic connector.1050</title>
			<path d="M-12.46 837.93 L-12.75 837.71 C-17.72 828.45 -17.72 805.17 -17.72 781.89 C-17.72 758.61 -17.72 735.33 -12.75
						 726.07 L-12.46 725.86" class="st18"/>
		</g>
		<g id="shape196-155" transform="translate(100.63,-497.445)">
			<title>Dynamic connector.1051</title>
			<path d="M-12.02 837.4 L-12.29 837.15 C-17.72 825.03 -17.72 791.48 -17.72 757.92 C-17.72 724.36 -17.72 690.8 -12.29 678.68
						 L-12.02 678.44" class="st18"/>
		</g>
		<g id="shape197-162" transform="translate(233.858,-437.448)">
			<title>Dynamic connector.1052</title>
			<desc>tls</desc>
			<path d="M-0.47 840.98 L-0.12 840.94 C18.99 833.25 8.67 782.58 9.91 730.75 C11.19 677.58 24.62 623.19 -0.13 615.01 L-0.49
						 614.95" class="st18"/>
			<rect x="4.95775" y="721.658" width="10.125" height="10.7998" class="st20"/>
			<text x="4.96" y="729.76" class="st21">tls</text>		</g>
		<g id="shape198-171" transform="translate(209.764,-701.531)">
			<title>Dynamic connector.1053</title>
			<desc>tls</desc>
			<path d="M5.53 838.15 L5.82 837.94 C14.15 835.53 26.48 838.82 24.4 834.24 C22.19 829.37 3.66 815.59 -10.2 812.49 L-10.56
						 812.46" class="st18"/>
			<rect x="12.1088" y="821.441" width="10.125" height="10.7998" class="st22"/>
			<text x="12.11" y="829.54" class="st21">tls</text>		</g>
		<g id="shape199-180" transform="translate(657.638,-741.685)">
			<title>Sheet.199</title>
			<desc>Application 1</desc>
			<rect x="0" y="793.701" width="133.228" height="48.189" class="st23"/>
			<text x="32.32" y="821.4" class="st15">Application 1</text>		</g>
		<g id="shape200-183" transform="translate(846.142,-741.26)">
			<title>Sheet.200</title>
			<desc>Application 2</desc>
			<rect x="0" y="793.701" width="133.228" height="48.189" class="st23"/>
			<text x="32.32" y="821.4" class="st15">Application 2</text>		</g>
		<g id="shape201-186" transform="translate(657.638,-646.299)">
			<title>Sheet.201</title>
			<desc>Kube proxy</desc>
			<rect x="0" y="793.701" width="133.228" height="48.189" class="st14"/>
			<text x="36.87" y="821.4" class="st15">Kube proxy</text>		</g>
		<g id="shape202-189" transform="translate(657.638,-586.302)">
			<title>Sheet.202</title>
			<desc>Calico</desc>
			<rect x="0" y="793.701" width="133.228" height="48.189" class="st16"/>
			<text x="50.22" y="821.4" class="st15">Calico</text>		</g>
		<g id="shape203-192" transform="translate(657.638,-526.305)">
			<title>Sheet.203</title>
			<desc>Kubelet</desc>
			<rect x="0" y="793.701" width="133.228" height="48.189" class="st17"/>
			<text x="45.94" y="821.4" class="st15">Kubelet</text>		</g>
		<g id="shape204-195" transform="translate(657.638,-466.308)">
			<title>Sheet.204</title>
			<desc>Docker</desc>
			<rect x="0" y="793.701" width="133.228" height="48.189" class="st17"/>
			<text x="47.53" y="821.4" class="st15">Docker</text>		</g>
		<g id="shape205-198" transform="translate(657.638,-355.956)">
			<title>Sheet.205</title>
			<desc>Application 3</desc>
			<rect x="0" y="793.701" width="133.228" height="48.189" class="st23"/>
			<text x="32.32" y="821.4" class="st15">Application 3</text>		</g>
		<g id="shape206-201" transform="translate(846.142,-355.531)">
			<title>Sheet.206</title>
			<desc>Application 1</desc>
			<rect x="0" y="793.701" width="133.228" height="48.189" class="st23"/>
			<text x="32.32" y="821.4" class="st15">Application 1</text>		</g>
		<g id="shape207-204" transform="translate(657.638,-260.57)">
			<title>Sheet.207</title>
			<desc>Kube proxy</desc>
			<rect x="0" y="793.701" width="133.228" height="48.189" class="st14"/>
			<text x="36.87" y="821.4" class="st15">Kube proxy</text>		</g>
		<g id="shape208-207" transform="translate(657.638,-200.573)">
			<title>Sheet.208</title>
			<desc>Calico</desc>
			<rect x="0" y="793.701" width="133.228" height="48.189" class="st16"/>
			<text x="50.22" y="821.4" class="st15">Calico</text>		</g>
		<g id="shape209-210" transform="translate(657.638,-140.576)">
			<title>Sheet.209</title>
			<desc>Kubelet</desc>
			<rect x="0" y="793.701" width="133.228" height="48.189" class="st17"/>
			<text x="45.94" y="821.4" class="st15">Kubelet</text>		</g>
		<g id="shape210-213" transform="translate(657.638,-80.5792)">
			<title>Sheet.210</title>
			<desc>Docker</desc>
			<rect x="0" y="793.701" width="133.228" height="48.189" class="st17"/>
			<text x="47.53" y="821.4" class="st15">Docker</text>		</g>
		<g id="shape211-216" transform="translate(717.165,-694.488)">
			<title>Dynamic connector.1123</title>
			<path d="M12.43 837.89 L12.72 837.67 C24.15 826.4 13.34 812.17 8.84 801.5 L8.75 801.16" class="st18"/>
		</g>
		<g id="shape212-223" transform="translate(790.866,-670.394)">
			<title>Dynamic connector.1124</title>
			<desc>tls</desc>
			<path d="M3.03 835.94 L3.19 835.62 C27.02 793.49 73.02 806.08 97.2 803.2 C113.83 801.22 120.13 791.92 121.56 778.05 L121.57
						 777.69" class="st18"/>
			<rect x="58.6582" y="798.199" width="10.125" height="10.7998" class="st22"/>
			<text x="58.66" y="806.3" class="st21">tls</text>		</g>
		<g id="shape213-232" transform="translate(717.165,-308.759)">
			<title>Dynamic connector.1125</title>
			<path d="M9.77 835.78 L9.92 835.45 C13.71 823.39 9.7 811.32 7.89 801.68 L7.84 801.32" class="st18"/>
		</g>
		<g id="shape214-239" transform="translate(790.866,-296.712)">
			<title>Dynamic connector.1126</title>
			<path d="M6.67 841.88 L7.03 841.88 C37.66 841.82 81.87 840.93 102.87 828.84 C119 819.56 121.45 803.68 121.82 790.11 L121.83
						 789.75" class="st18"/>
		</g>
		<g id="shape215-246" transform="translate(657.638,-284.665)">
			<title>Dynamic connector.1127</title>
			<desc>tls</desc>
			<path d="M-6.62 841 L-6.97 840.95 C-34.01 832.8 -21.16 771.3 -35.72 648.3 C-51.69 513.39 -100.63 304.51 -430.87 449.12"
					class="st24"/>
			<rect x="-89.7769" y="475.807" width="10.125" height="10.7998" class="st20"/>
			<text x="-89.78" y="483.91" class="st21">tls</text>		</g>
		<g id="shape216-256" transform="translate(657.638,-694.82)">
			<title>Dynamic connector.1128</title>
			<path d="M-6.49 847.4 L-6.84 847.32 C-144.64 814.63 -356.3 806.54 -424.9 845.24 L-425.21 845.43" class="st18"/>
		</g>
		<g id="group217-263" transform="translate(1084.25,-737.486)">
			<title>Sheet.217</title>
			<g id="group218-264" transform="translate(8.85667,-8.37834)">
				<title>Data.1619</title>
				<desc>EBS</desc>
				<g id="shape219-265" transform="translate(0,0.000575512)">
					<title>Sheet.219</title>
					<path d="M61.9 797.86 A30.9494 17.9828 0.18 0 1 61.15 801.85 A30.9494 17.9828 -179.82 0 0 61.9 797.86 L61.9 797.86
								 ZM61.9 797.86 A30.9494 17.9828 -179.82 0 0 0 797.86 L0 823.91 A30.9496 17.9829 -179.82 0 0 61.9
								 823.91 L62.01 823.91 L62.01 797.86 L61.9 797.86 L61.9 797.86 Z" class="st4"/>
					<path d="M61.9 797.86 A30.9494 17.9828 0.18 0 1 61.15 801.85 A30.9494 17.9828 -179.82 0 0 61.9 797.86M61.9 797.86
								 A30.9494 17.9828 -179.82 0 0 0 797.86 L0 823.91 A30.9496 17.9829 -179.82 0 0 61.9 823.91 L62.01
								 823.91 L62.01 797.86 L61.9 797.86" class="st5"/>
				</g>
				<g id="shape220-268" transform="translate(-3.07754E-13,-26.0435)">
					<title>Sheet.220</title>
					<path d="M0 823.81 A30.9494 17.9828 -179.82 1 1 61.9 824 A30.9494 17.9828 -179.82 1 1 0 823.81 Z" class="st6"/>
				</g>
				<g id="shape221-271">
					<title>Sheet.221</title>
					<path d="M0 797.86 L0 823.81 L0 823.91 A30.9496 17.9829 -179.82 0 0 61.9 823.91 L62.01 823.91 L62.01 797.86 L61.9
								 797.86 A30.9494 17.9828 0.18 0 1 0 797.86 L0 797.86 Z" class="st7"/>
					<path d="M0 797.86 L0 823.81 L0 823.91 A30.9496 17.9829 -179.82 0 0 61.9 823.91 L62.01 823.91 L62.01 797.86 L61.9
								 797.86 A30.9494 17.9828 0.18 0 1 0 797.86" class="st8"/>
				</g>
				<g id="shape222-275" transform="translate(0,0.000503586)">
					<title>Sheet.222</title>
					<path d="M61.9 797.86 A30.9494 17.9828 -179.82 1 0 0 797.86 L0 823.91 A30.9496 17.9829 -179.82 0 0 61.9 823.91
								 L62.01 823.91 L62.01 797.86 L61.9 797.86" class="st9"/>
				</g>
				<g id="shape218-278">
					<text x="21.72" y="854.89" class="st10">EBS</text>				</g>
			</g>
			<g id="group223-280">
				<title>Lock and key.2031</title>
				<g id="shape224-281" transform="translate(-8.50394,0)">
					<title>Sheet.224</title>
					<path d="M2.64 832.4 L2.61 832.37 L2.64 832.4 ZM2.64 832.39 A1.44385 1.47842 -180 0 0 4.21 832.3 A5.03956 5.16022
								 -180 0 0 5.46 831.09 A12.7808 13.0868 -180 0 0 6.19 829.58 L27.31 841.89 L39.72 834.66 L39.72 810.51
								 L34.23 807.3 L34.21 801.88 L34.21 797.64 A13.7727 13.7517 -180 0 0 14.04 785.38 A9.43467 9.42029
								 -180 0 0 9.71 792.29 L9.71 801.13 L4.26 804.31 L4.26 819.48 A2.0366 1.98898 -90 0 0 3.04 819.59
								 A5.78193 5.64673 -90 0 0 1.15 822.15 A14.1425 13.8118 -90 0 0 0 827.45 A7.57547 7.39833 -90 0 0
								 1.18 831.53 L2.64 832.4 L2.64 832.39 ZM2.61 832.37 L2.64 832.39 L2.61 832.37 ZM1.17 828.12 A14.3287
								 13.9936 90 0 1 2.03 823.52 A15.667 16.0421 -180 0 0 1.18 828.12 A7.43663 7.61468 -180 0 0 1.65 830.81
								 A5.94382 5.80484 90 0 1 1.17 828.12 ZM17.84 792.57 A2.38546 2.38183 -180 0 0 17.72 792.6 A6.01578
								 6.00661 -0 0 0 16.71 793.19 A2.38546 2.38183 0 0 1 17.72 792.6 A6.01578 6.00661 180 0 1 17.83 792.55
								 L17.84 792.57 ZM17.83 792.55 A6.01578 6.00661 180 0 1 26.24 798.47 A933.781 932.358 -180 0 0 26.19
								 802.62 L17.81 797.74 L17.84 792.57 L17.83 792.55 Z" class="st4"/>
					<path d="M2.64 832.4 L2.61 832.37M2.64 832.39 A1.44385 1.47842 -180 0 0 4.21 832.3 A5.03956 5.16022 -180 0 0
								 5.46 831.09 A12.7808 13.0868 -180 0 0 6.19 829.58 L27.31 841.89 L39.72 834.66 L39.72 810.51 L34.23
								 807.3 L34.21 801.88 L34.21 797.64 A13.7727 13.7517 -180 0 0 14.04 785.38 A9.43467 9.42029 -180 0
								 0 9.71 792.29 L9.71 801.13 L4.26 804.31 L4.26 819.48 A2.0366 1.98898 -90 0 0 3.04 819.59 A5.78193
								 5.64673 -90 0 0 1.15 822.15 A14.1425 13.8118 -90 0 0 0 827.45 A7.57547 7.39833 -90 0 0 1.18 831.53
								 L2.64 832.4M2.61 832.37 L2.64 832.39M1.17 828.12 A14.3287 13.9936 90 0 1 2.03 823.52 A15.667 16.0421
								 -180 0 0 1.18 828.12 A7.43663 7.61468 -180 0 0 1.65 830.81 A5.94382 5.80484 90 0 1 1.17 828.12M17.84
								 792.57 A2.38546 2.38183 -180 0 0 17.72 792.6 A6.01578 6.00661 -0 0 0 16.71 793.19 A2.38546 2.38183
								 0 0 1 17.72 792.6 A6.01578 6.00661 180 0 1 17.83 792.55M17.83 792.55 A6.01578 6.00661 180 0 1 26.24
								 798.47 A933.781 932.358 -180 0 0 26.19 802.62 L17.81 797.74 L17.84 792.57" class="st5"/>
				</g>
				<g id="shape225-284" transform="translate(23.0536,2.27374E-13)">
					<title>Sheet.225</title>
					<path d="M0 817.74 L0 841.89 L12.41 834.66 L12.41 810.51 L0 817.74 Z" class="st11"/>
				</g>
				<g id="shape226-287" transform="translate(0,-24.1513)">
					<title>Sheet.226</title>
					<path d="M0 828.46 L23.05 841.89 L35.47 834.66 L12.41 821.22 L0 828.46 Z" class="st6"/>
				</g>
				<g id="shape227-290" transform="translate(5.45488,-28.8141)">
					<title>Sheet.227</title>
					<path d="M24.53 840.01 A5.49834 5.48996 0 0 1 16.44 840.22 A933.781 932.358 0 0 1 16.53 827.28 A6.01578 6.00661
								 -180 0 0 7 822.01 A2.38546 2.38183 0 0 1 8.13 821.39 L8.06 832.7 A5.32098 5.31287 0 0 1 0 832.6
								 L0 821.11 A9.43467 9.42029 0 0 1 4.33 814.19 A13.7727 13.7517 0 0 1 24.5 826.45 L24.5 830.69 L24.53
								 840.01 Z" class="st12"/>
				</g>
				<g id="shape228-293">
					<title>Sheet.228</title>
					<path d="M0 828.46 L23.05 841.89 L23.05 817.74 L0 804.31 L0 828.46 Z" class="st12"/>
				</g>
				<g id="shape229-296" transform="translate(-130.432,-4.24119) rotate(-10) scale(-1,1)">
					<title>Sheet.229</title>
					<ellipse cx="3.43927" cy="835.512" rx="3.43927" ry="6.37807" class="st12"/>
				</g>
				<g id="shape230-299" transform="translate(10.3553,-18.9213)">
					<title>Sheet.230</title>
					<path d="M0 841.04 L1.43 841.89 L1.45 835.92 L0 835.09 L0 841.04 Z" class="st12"/>
				</g>
				<g id="shape231-302" transform="translate(13.5484,-39.2486)">
					<title>Sheet.231</title>
					<path d="M0 836.97 L8.41 841.89 L8.44 837.72 A6.03725 6.02805 -180 0 0 0.03 831.82 L0 836.97" class="st9"/>
				</g>
				<g id="shape232-305" transform="translate(-3.08051,-9.30656)">
					<title>Sheet.232</title>
					<path d="M14.8 826.45 L14.8 828.19 L13.84 830.16 L10.15 832.33 L8.93 834.92 L5.66 836.82 A12.7808 13.0868 0 0
								 1 4.29 840.4 A5.03956 5.16022 0 0 1 3.03 841.61 A1.44385 1.47842 0 0 1 0.91 841.1 A7.43663 7.61468
								 0 0 1 0 837.43 A15.667 16.0421 0 0 1 0.9 832.69 A6.63517 6.79403 0 0 1 3.03 829.58 A1.58558 1.62354
								 0 0 1 5.14 830.19 A4.21812 4.31911 0 0 1 5.8 831.78 L14.8 826.45 Z" class="st12"/>
				</g>
				<g id="shape233-308" transform="translate(143.826,-0.591621) rotate(10)">
					<title>Sheet.233</title>
					<ellipse cx="0.891036" cy="840.118" rx="0.891036" ry="1.77152" class="st13"/>
					<ellipse cx="0.891036" cy="840.118" rx="0.891036" ry="1.77152" class="st8"/>
				</g>
				<g id="shape234-312" transform="translate(2.31668,-19.4211)">
					<title>Sheet.234</title>
					<path d="M0 840.79 L0.4 841.89 L9.4 836.57 L8.23 835.88 L0 840.79 Z" class="st12"/>
				</g>
				<g id="shape235-315" transform="translate(-4.25605,-9.49086)">
					<title>Sheet.235</title>
					<path d="M2.64 841.89 A5.80484 5.94382 0 0 1 1.17 837.61 A13.9936 14.3287 0 0 1 2.08 832.87 A7.43618 7.61423
								 0 0 1 4.21 829.77 A1.52978 1.56641 0 0 1 5.6 829.71 L4.98 829.31 A1.98898 2.0366 -180 0 0 3.04 829.08
								 A5.64673 5.78193 -180 0 0 1.15 831.64 A13.8118 14.1425 -180 0 0 0 836.94 A7.39833 7.57547 -180 0
								 0 1.18 841.02 L2.64 841.89 Z" class="st12"/>
				</g>
				<g id="shape236-318" transform="translate(-1.93643,-13.2271)">
					<title>Sheet.236</title>
					<path d="M0.69 839.35 A3.20076 3.2774 0 0 1 0 841.46 a0.569519 0.583155 -180 0 0 0.859812 0.334684 A1.684 1.72432
								 -180 0 0 1.47 840.88 A3.30895 3.38818 -180 0 0 1.63 839.11 a0.806835 0.826153 -180 0 0 -0.584573
								 -0.715477 a0.849772 0.870118 -180 0 0 -0.540848 0.223726 A2.98633 3.05783 0 0 1 0.69 839.35 Z"
							class="st12"/>
				</g>
				<g id="shape237-321" transform="translate(-4.25605,-2.27374E-13)">
					<title>Sheet.237</title>
					<path d="M4.26 804.31 L4.26 819.48 A1.96317 1.98129 -180 0 0 3.04 819.59 A5.72211 5.77493 -180 0 0 1.15 822.15
								 A14.1853 14.3162 -180 0 0 0 827.45 A7.58562 7.65565 -180 0 0 1.18 831.53 L2.64 832.4 A1.46659 1.48013
								 -180 0 0 4.21 832.3 A5.07144 5.11826 -180 0 0 5.46 831.09 A12.2518 12.3649 -180 0 0 6.19 829.58
								 L27.31 841.89 L39.72 834.66 L39.72 810.51 L34.23 807.35 L34.21 797.64 A14.0374 14.0136 -165.69 0
								 0 14.04 785.38 A9.40402 9.38968 -0.21 0 0 9.71 792.29 L9.72 801.16 L4.26 804.31" class="st9"/>
				</g>
			</g>
		</g>
		<g id="shape238-324" transform="translate(1080,-773.193)">
			<title>Dynamic connector.1522</title>
			<desc>Mounted as needed by applications</desc>
			<path d="M0 848.65 L-90.82 849.24" class="st25"/>
			<rect x="-89.1927" y="838.177" width="77.7516" height="21.5997" class="st20"/>
			<text x="-89.19" y="846.28" class="st21">Mounted as needed<tspan x="-80" dy="1.2em" class="st27">by applications</tspan></text>		</g>
		<g id="group239-333" transform="translate(1084.25,-405.504)">
			<title>Load Balancer.1995</title>
			<g id="group240-334">
				<title>Host</title>
				<desc>Elastic Load Balancer</desc>
				<g id="shape241-335">
					<title>Sheet.241</title>
					<path d="M47.24 841.89 L70.87 829.36 L70.87 804.74 L23.62 779.68 L0 792.21 L0 816.82 L47.24 841.89 Z"
							class="st28"/>
				</g>
				<g id="shape242-337" transform="translate(47.2441,0)">
					<title>Sheet.242</title>
					<path d="M0 817.27 L0 841.89 L23.62 829.36 L23.62 804.74 L0 817.27 Z" class="st11"/>
				</g>
				<g id="shape243-340" transform="translate(0,-24.6156)">
					<title>Sheet.243</title>
					<path d="M0 816.82 L47.24 841.89 L70.87 829.36 L23.62 804.29 L0 816.82 Z" class="st6"/>
				</g>
				<g id="shape244-343">
					<title>Sheet.244</title>
					<path d="M0 816.82 L47.24 841.89 L47.24 817.27 L0 792.21 L0 816.82 Z" class="st12"/>
				</g>
				<g id="shape245-346">
					<title>Sheet.245</title>
					<path d="M0 792.21 L0 816.82 L47.24 841.89 L70.87 829.36 L70.87 804.74 L23.62 779.68 L0 792.21" class="st9"/>
				</g>
				<g id="shape240-349">
					<text x="-13" y="854.89" class="st10">Elastic Load Balancer</text>				</g>
			</g>
			<g id="group246-351" transform="translate(427.549,88.1488) rotate(30)">
				<title>Sheet.246</title>
				<g id="shape247-352" transform="translate(1.4988E-13,-6.05239)">
					<title>Sheet.247</title>
					<path d="M8.26 839.96 L0 839.96 L0 838.59 L8.26 838.59 L8.26 836.66 L12.81 839.41 L8.26 841.89 L8.26 839.96 L8.26
								 839.96 Z" class="st29"/>
				</g>
				<g id="shape248-354" transform="translate(17.0866,-6.05239)">
					<title>Sheet.248</title>
					<path d="M7.97 839.96 L0 839.96 L0 838.59 L7.97 838.59 L7.97 836.66 L12.81 839.41 L7.97 841.89 L7.97 839.96 L7.97
								 839.96 Z" class="st29"/>
				</g>
				<g id="shape249-356" transform="translate(16.2323,-9.90392)">
					<title>Sheet.249</title>
					<path d="M7.4 837.49 L0.57 841.89 L0 840.79 L6.83 836.39 L5.7 834.74 L11.11 834.46 L8.54 839.14 L7.4 837.49 L7.4
								 837.49 Z" class="st29"/>
				</g>
				<g id="shape250-358" transform="translate(16.2323,1.13687E-13)">
					<title>Sheet.250</title>
					<path d="M7.4 838.86 L0.57 834.46 L0 835.56 L6.83 839.96 L5.7 841.61 L11.11 841.89 L8.54 837.21 L7.4 838.86 L7.4
								 838.86 Z" class="st29"/>
				</g>
			</g>
			<g id="group251-360" transform="translate(437.881,67.4112) rotate(30)">
				<title>Sheet.251</title>
				<g id="shape252-361" transform="translate(1.4988E-13,-6.05239)">
					<title>Sheet.252</title>
					<path d="M8.26 839.96 L0 839.96 L0 838.59 L8.26 838.59 L8.26 836.66 L12.81 839.41 L8.26 841.89 L8.26 839.96 L8.26
								 839.96 Z" class="st29"/>
				</g>
				<g id="shape253-363" transform="translate(17.0866,-6.05239)">
					<title>Sheet.253</title>
					<path d="M7.97 839.96 L0 839.96 L0 838.59 L7.97 838.59 L7.97 836.66 L12.81 839.41 L7.97 841.89 L7.97 839.96 L7.97
								 839.96 Z" class="st29"/>
				</g>
				<g id="shape254-365" transform="translate(16.2323,-9.90392)">
					<title>Sheet.254</title>
					<path d="M7.4 837.49 L0.57 841.89 L0 840.79 L6.83 836.39 L5.7 834.74 L11.11 834.46 L8.54 839.14 L7.4 837.49 L7.4
								 837.49 Z" class="st29"/>
				</g>
				<g id="shape255-367" transform="translate(16.2323,1.13687E-13)">
					<title>Sheet.255</title>
					<path d="M7.4 838.86 L0.57 834.46 L0 835.56 L6.83 839.96 L5.7 841.61 L11.11 841.89 L8.54 837.21 L7.4 838.86 L7.4
								 838.86 Z" class="st29"/>
				</g>
			</g>
		</g>
		<g id="shape256-369" transform="translate(650.551,-661.868)">
			<title>Dynamic connector.1168</title>
			<path d="M0.41 841.92 L0.05 841.92 C-44.94 846.33 -54.75 933.29 -58.12 1022.18 C-61.52 1111.75 -58.36 1203.28 0.05 1207.01
						 L0.41 1207.01" class="st18"/>
		</g>
		<g id="shape257-376" transform="translate(790.866,-670.394)">
			<title>Dynamic connector.1169</title>
			<path d="M0 841.89 C10.63 841.89 10.63 889.82 10.63 937.74 C10.63 1012.31 10.63 1086.88 303.12 1086.88" class="st30"/>
		</g>
		<g id="shape258-379" transform="translate(790.866,-284.665)">
			<title>Dynamic connector.1170</title>
			<desc>https</desc>
			<path d="M0 841.89 C79.25 841.89 209.88 841.89 268.74 811.69 C317.01 786.93 317.01 741.86 317.01 708.52" class="st30"/>
			<rect x="186.199" y="826.661" width="20.4033" height="10.7998" class="st20"/>
			<text x="186.2" y="834.76" class="st21">https</text>		</g>
		<g id="group259-384" transform="translate(21.2598,-141.732)">
			<title>Load Balancer.1172</title>
			<g id="group260-385">
				<title>Host</title>
				<desc>Elastic Load Balancer</desc>
				<g id="shape261-386">
					<title>Sheet.261</title>
					<path d="M47.24 841.89 L70.87 829.36 L70.87 804.74 L23.62 779.68 L0 792.21 L0 816.82 L47.24 841.89 Z"
							class="st28"/>
				</g>
				<g id="shape262-388" transform="translate(47.2441,0)">
					<title>Sheet.262</title>
					<path d="M0 817.27 L0 841.89 L23.62 829.36 L23.62 804.74 L0 817.27 Z" class="st11"/>
				</g>
				<g id="shape263-391" transform="translate(0,-24.6156)">
					<title>Sheet.263</title>
					<path d="M0 816.82 L47.24 841.89 L70.87 829.36 L23.62 804.29 L0 816.82 Z" class="st6"/>
				</g>
				<g id="shape264-394">
					<title>Sheet.264</title>
					<path d="M0 816.82 L47.24 841.89 L47.24 817.27 L0 792.21 L0 816.82 Z" class="st12"/>
				</g>
				<g id="shape265-397">
					<title>Sheet.265</title>
					<path d="M0 792.21 L0 816.82 L47.24 841.89 L70.87 829.36 L70.87 804.74 L23.62 779.68 L0 792.21" class="st9"/>
				</g>
				<g id="shape260-400">
					<text x="-13" y="854.89" class="st10">Elastic Load Balancer</text>				</g>
			</g>
			<g id="group266-402" transform="translate(427.549,88.1488) rotate(30)">
				<title>Sheet.266</title>
				<g id="shape267-403" transform="translate(1.4988E-13,-6.05239)">
					<title>Sheet.267</title>
					<path d="M8.26 839.96 L0 839.96 L0 838.59 L8.26 838.59 L8.26 836.66 L12.81 839.41 L8.26 841.89 L8.26 839.96 L8.26
								 839.96 Z" class="st29"/>
				</g>
				<g id="shape268-405" transform="translate(17.0866,-6.05239)">
					<title>Sheet.268</title>
					<path d="M7.97 839.96 L0 839.96 L0 838.59 L7.97 838.59 L7.97 836.66 L12.81 839.41 L7.97 841.89 L7.97 839.96 L7.97
								 839.96 Z" class="st29"/>
				</g>
				<g id="shape269-407" transform="translate(16.2323,-9.90392)">
					<title>Sheet.269</title>
					<path d="M7.4 837.49 L0.57 841.89 L0 840.79 L6.83 836.39 L5.7 834.74 L11.11 834.46 L8.54 839.14 L7.4 837.49 L7.4
								 837.49 Z" class="st29"/>
				</g>
				<g id="shape270-409" transform="translate(16.2323,1.13687E-13)">
					<title>Sheet.270</title>
					<path d="M7.4 838.86 L0.57 834.46 L0 835.56 L6.83 839.96 L5.7 841.61 L11.11 841.89 L8.54 837.21 L7.4 838.86 L7.4
								 838.86 Z" class="st29"/>
				</g>
			</g>
			<g id="group271-411" transform="translate(437.881,67.4112) rotate(30)">
				<title>Sheet.271</title>
				<g id="shape272-412" transform="translate(1.4988E-13,-6.05239)">
					<title>Sheet.272</title>
					<path d="M8.26 839.96 L0 839.96 L0 838.59 L8.26 838.59 L8.26 836.66 L12.81 839.41 L8.26 841.89 L8.26 839.96 L8.26
								 839.96 Z" class="st29"/>
				</g>
				<g id="shape273-414" transform="translate(17.0866,-6.05239)">
					<title>Sheet.273</title>
					<path d="M7.97 839.96 L0 839.96 L0 838.59 L7.97 838.59 L7.97 836.66 L12.81 839.41 L7.97 841.89 L7.97 839.96 L7.97
								 839.96 Z" class="st29"/>
				</g>
				<g id="shape274-416" transform="translate(16.2323,-9.90392)">
					<title>Sheet.274</title>
					<path d="M7.4 837.49 L0.57 841.89 L0 840.79 L6.83 836.39 L5.7 834.74 L11.11 834.46 L8.54 839.14 L7.4 837.49 L7.4
								 837.49 Z" class="st29"/>
				</g>
				<g id="shape275-418" transform="translate(16.2323,1.13687E-13)">
					<title>Sheet.275</title>
					<path d="M7.4 838.86 L0.57 834.46 L0 835.56 L6.83 839.96 L5.7 841.61 L11.11 841.89 L8.54 837.21 L7.4 838.86 L7.4
								 838.86 Z" class="st29"/>
				</g>
			</g>
		</g>
		<g id="shape276-420" transform="translate(93.5433,-684.345)">
			<title>Dynamic connector.1190</title>
			<desc>https</desc>
			<path d="M0 841.89 C-36.85 837.42 -55.78 843.09 -59.01 911.32 C-63.32 1002.6 -39.51 1205.83 -39.51 1327.15"
					class="st30"/>
			<rect x="-64.0563" y="1059.05" width="20.4033" height="10.7998" class="st20"/>
			<text x="-64.06" y="1067.15" class="st21">https</text>		</g>
		<g id="shape277-425" transform="translate(18,-18)">
			<title>Sheet.277</title>
			<desc>Green</desc>
			<rect x="0" y="807.874" width="56.8346" height="34.0157" class="st17"/>
			<text x="12.26" y="828.48" class="st15">Green</text>		</g>
		<g id="shape278-428" transform="translate(311.669,-18)">
			<title>Sheet.278</title>
			<desc>Red</desc>
			<rect x="0" y="807.874" width="56.8346" height="34.0157" class="st14"/>
			<text x="18.03" y="828.48" class="st15">Red</text>		</g>
		<g id="shape279-431" transform="translate(566.929,-18)">
			<title>Sheet.279</title>
			<desc>Yellow</desc>
			<rect x="0" y="807.874" width="56.8346" height="34.0157" class="st16"/>
			<text x="11.07" y="828.48" class="st15">Yellow</text>		</g>
		<g id="shape280-434" transform="translate(286.299,-732.472)">
			<title>Reverse.1054</title>
			<desc>Key value store for the cluster. If you lose this you are scr...</desc>
			<path d="M-4.25 795.12 L0 795.12 L0 841.89 L-4.25 841.89" class="st31"/>
			<text x="4" y="809.5" class="st10">Key value store for the cluster. If you lose <tspan x="4" dy="1.2em" class="st27">this you are screwed</tspan>, so be sure to <tspan
						x="4" dy="1.2em" class="st27">backup</tspan>/redundancy</text>		</g>
		<g id="shape281-440" transform="translate(286.299,-665.15)">
			<title>Reverse.1055</title>
			<desc>All communication within and without the Master is routed thr...</desc>
			<path d="M-4.25 807.87 L0 807.87 L0 841.89 L-4.25 841.89" class="st31"/>
			<text x="4" y="821.88" class="st10">All communication within and without the <tspan x="4" dy="1.2em" class="st27">Master is routed through the API server</tspan>.</text>		</g>
		<g id="shape282-445" transform="translate(286.299,-587.693)">
			<title>Reverse.1056</title>
			<desc>Regularly checks through API server what the desired state of...</desc>
			<path d="M-4.25 773.86 L0 773.86 L0 841.89 L-4.25 841.89" class="st31"/>
			<text x="4" y="786.87" class="st10">Regularly checks through API server <tspan x="4" dy="1.2em" class="st27">what the desired state of the cluster vs </tspan><tspan
						x="4" dy="1.2em" class="st27">the actual state is</tspan>. If there is a <tspan x="4" dy="1.2em"
						class="st27">discrepency</tspan>, fires an event to API Server <tspan x="4" dy="1.2em" class="st27">to schedule a change</tspan>.</text>		</g>
		<g id="shape283-453" transform="translate(286.299,-535.961)">
			<title>Reverse.1057</title>
			<desc>Schedules when a gap between actual vs desired state is bridg...</desc>
			<path d="M-4.25 795.12 L0 795.12 L0 841.89 L-4.25 841.89" class="st31"/>
			<text x="4" y="809.5" class="st10">Schedules when a gap between actual vs <tspan x="4" dy="1.2em" class="st27">desired state is bridged on Worker </tspan><tspan
						x="4" dy="1.2em" class="st27">nodes</tspan>.</text>		</g>
		<g id="shape284-459" transform="translate(286.299,-470.976)">
			<title>Reverse.1058</title>
			<desc>Checks balance of auto scaling groups, resource usage, availa...</desc>
			<path d="M-4.25 782.36 L0 782.36 L0 841.89 L-4.25 841.89" class="st31"/>
			<text x="4" y="797.13" class="st10">Checks balance of auto scaling groups, <tspan x="4" dy="1.2em" class="st27">resource usage</tspan>, availability zones. Calls <tspan
						x="4" dy="1.2em" class="st27">API Server to make changes in desired vs </tspan><tspan x="4" dy="1.2em"
						class="st27">acutal</tspan>.</text>		</g>
		<g id="shape285-466" transform="translate(286.299,-426.118)">
			<title>Reverse.1059</title>
			<desc>Sets Route53 if needed</desc>
			<path d="M-4.25 819.21 L0 819.21 L0 841.89 L-4.25 841.89" class="st31"/>
			<text x="4" y="833.55" class="st10">Sets Route53 if needed</text>		</g>
		<g id="shape286-470" transform="translate(286.299,-372.26)">
			<title>Reverse.1060</title>
			<desc>Software defined network.</desc>
			<path d="M-4.25 819.21 L0 819.21 L0 841.89 L-4.25 841.89" class="st31"/>
			<text x="4" y="833.55" class="st10">Software defined network. </text>		</g>
		<g id="shape287-474" transform="translate(286.299,-285.307)">
			<title>Reverse.1061</title>
			<desc>Basic k8s service that starts k8s containers. Containers draw...</desc>
			<path d="M-4.25 773.86 L0 773.86 L0 841.89 L-4.25 841.89" class="st31"/>
			<text x="4" y="786.87" class="st10">Basic k8s service that starts k8s <tspan x="4" dy="1.2em" class="st27">containers</tspan>. Containers drawn in pink are <tspan
						x="4" dy="1.2em" class="st27">bootstrapped at start</tspan>, yllow ones are <tspan x="4" dy="1.2em"
						class="st27">“</tspan>plugins” that are started by Kubelet at <tspan x="4" dy="1.2em" class="st27">the request of API Server </tspan></text>		</g>
		<g id="shape288-482" transform="translate(286.299,-240.945)">
			<title>Reverse.1062</title>
			<desc>Docker service, as all of the above (except Kubelet) are Dock...</desc>
			<path d="M-4.25 807.87 L0 807.87 L0 841.89 L-4.25 841.89" class="st31"/>
			<text x="4" y="821.88" class="st10">Docker service, as all of the above <tspan x="4" dy="1.2em" class="st27">(</tspan>except Kubelet) are Docker containers </text>		</g>
		<g id="shape289-487" transform="translate(850.394,-647.229)">
			<title>Reverse.1108</title>
			<desc>All communication within and without the worker node is route...</desc>
			<path d="M-4.25 782.36 L0 782.36 L0 841.89 L-4.25 841.89" class="st31"/>
			<text x="4" y="797.13" class="st10">All communication within and without the <tspan x="4" dy="1.2em" class="st27">worker node is routed through the Kube </tspan><tspan
						x="4" dy="1.2em" class="st27">proxy</tspan>. Also communication to outside <tspan x="4" dy="1.2em"
						class="st27">(</tspan>ELB)</text>		</g>
		<g id="shape290-494" transform="translate(850.394,-597.623)">
			<title>Reverse.1109</title>
			<desc>Software defined network</desc>
			<path d="M-4.25 819.21 L0 819.21 L0 841.89 L-4.25 841.89" class="st31"/>
			<text x="4" y="833.55" class="st10">Software defined network</text>		</g>
		<g id="shape291-498" transform="translate(850.394,-518.253)">
			<title>Reverse.1110</title>
			<desc>Basic k8s service that starts k8s containers. Containers draw...</desc>
			<path d="M-4.25 773.86 L0 773.86 L0 841.89 L-4.25 841.89" class="st31"/>
			<text x="4" y="786.87" class="st10">Basic k8s service that starts k8s <tspan x="4" dy="1.2em" class="st27">containers</tspan>. Containers drawn in pink are <tspan
						x="4" dy="1.2em" class="st27">bootstrapped at start</tspan>, yllow ones are <tspan x="4" dy="1.2em"
						class="st27">“</tspan>plugins” that are started by Kubelet at <tspan x="4" dy="1.2em" class="st27">the request of API Server </tspan></text>		</g>
		<g id="shape292-506" transform="translate(850.394,-468.283)">
			<title>Reverse.1111</title>
			<desc>Docker service, as all of the above (except Kube Proxy) are D...</desc>
			<path d="M-4.25 795.12 L0 795.12 L0 841.89 L-4.25 841.89" class="st31"/>
			<text x="4" y="809.5" class="st10">Docker service, as all of the above <tspan x="4" dy="1.2em" class="st27">(</tspan>except Kube Proxy) are Docker <tspan
						x="4" dy="1.2em" class="st27">containers</tspan></text>		</g>
		<g id="shape293-512" transform="translate(1058.74,-235.276)">
			<title>Reverse.1171</title>
			<desc>If applications are external facing ELB is spun up. Communica...</desc>
			<path d="M0 769.61 L0 773.86 L113.81 773.86 L113.81 769.61" class="st31"/>
			<text x="17.28" y="786.87" class="st10">If applications are <tspan x="8.4" dy="1.2em" class="st27">external facing ELB is </tspan><tspan
						x="37.95" dy="1.2em" class="st27">spun up</tspan>. <tspan x="5.93" dy="1.2em" class="st27">Communication to ELB </tspan><tspan
						x="8.33" dy="1.2em" class="st27">is through Kube proxy</tspan></text>		</g>
		<g id="shape294-520" transform="translate(171.048,-152.922)">
			<title>Reverse.1189</title>
			<desc>Load balancer in front of Masters</desc>
			<path d="M-4.25 807.87 L0 807.87 L0 841.89 L-4.25 841.89" class="st31"/>
			<text x="4" y="821.88" class="st10">Load balancer in front <tspan x="4" dy="1.2em" class="st27">of Masters</tspan></text>		</g>
		<g id="shape295-525" transform="translate(844.724,-146.693)">
			<title>Reverse.1191</title>
			<desc>Applications are distributed and balanced among Worker nodes ...</desc>
			<path d="M0 705.83 L0 710.08 L133.23 710.08 L133.23 705.83" class="st31"/>
			<text x="5.47" y="724.98" class="st10">Applications are distributed <tspan x="20.65" dy="1.2em" class="st27">and balanced among </tspan><tspan
						x="21.02" dy="1.2em" class="st27">Worker nodes by the </tspan><tspan x="8.03" dy="1.2em" class="st27">Master</tspan>. If the Cluster Auto <tspan
						x="18.45" dy="1.2em" class="st27">Scaler notices that an </tspan><tspan x="15.25" dy="1.2em" class="st27">application is hitting its </tspan><tspan
						x="11.51" dy="1.2em" class="st27">resource limit</tspan>, it will call <tspan x="13.16" dy="1.2em"
						class="st27">the API server to initiate </tspan><tspan x="13.83" dy="1.2em" class="st27">another instance of that </tspan><tspan
						x="40.97" dy="1.2em" class="st27">application</tspan>.</text>		</g>
		<g id="shape296-538" transform="translate(102.047,-18.4252)">
			<title>Reverse.1193</title>
			<desc>Services through which k8s components are started</desc>
			<path d="M-4.25 807.87 L0 807.87 L0 841.89 L-4.25 841.89" class="st31"/>
			<text x="4" y="821.88" class="st10">Services through which k8s components <tspan x="4" dy="1.2em" class="st27">are started</tspan></text>		</g>
		<g id="shape297-543" transform="translate(395.717,-18.4252)">
			<title>Reverse.1195</title>
			<desc>Core kubernetes components bootstrapped by Kubelet</desc>
			<path d="M-4.25 807.87 L0 807.87 L0 841.89 L-4.25 841.89" class="st31"/>
			<text x="4" y="821.88" class="st10">Core kubernetes components <tspan x="4" dy="1.2em" class="st27">bootstrapped by Kubelet</tspan></text>		</g>
		<g id="shape298-548" transform="translate(650.976,-18.4252)">
			<title>Reverse.1197</title>
			<desc>Non core “plugin” kubernetes components</desc>
			<path d="M-4.25 807.87 L0 807.87 L0 841.89 L-4.25 841.89" class="st31"/>
			<text x="4" y="821.88" class="st10">Non core “plugin” kubernetes <tspan x="4" dy="1.2em" class="st27">components</tspan></text>		</g>
	</g>
</svg>
